<svg width="360" height="800" viewBox="0 0 360 800" fill="none" xmlns="http://www.w3.org/2000/svg">
<g clip-path="url(#clip0_97_448)">
<rect width="360" height="800" fill="white"/>
<line x1="0.5" y1="105" x2="0.499971" y2="1333" stroke="#F4F4F4"/>
<line x1="60.5001" y1="105" x2="60.5" y2="1333" stroke="#F4F4F4"/>
<line x1="120.5" y1="105" x2="120.5" y2="1333" stroke="#F4F4F4"/>
<line x1="180.5" y1="105" x2="180.5" y2="1333" stroke="#F4F4F4"/>
<line x1="240.5" y1="105" x2="240.5" y2="1333" stroke="#F4F4F4"/>
<line x1="300.5" y1="105" x2="300.5" y2="1333" stroke="#F4F4F4"/>
<line x1="536" y1="129.5" x2="-82" y2="129.5" stroke="#F4F4F4"/>
<line x1="536" y1="149.5" x2="-82" y2="149.5" stroke="#F4F4F4"/>
<line x1="536" y1="169.5" x2="-82" y2="169.5" stroke="#F4F4F4"/>
<line x1="536" y1="189.5" x2="-82" y2="189.5" stroke="#F4F4F4"/>
<line x1="536" y1="209.5" x2="-82" y2="209.5" stroke="#F4F4F4"/>
<line x1="536" y1="229.5" x2="-82" y2="229.5" stroke="#F4F4F4"/>
<line x1="536" y1="249.5" x2="-82" y2="249.5" stroke="#F4F4F4"/>
<line x1="536" y1="269.5" x2="-82" y2="269.5" stroke="#F4F4F4"/>
<line x1="536" y1="289.5" x2="-82" y2="289.5" stroke="#F4F4F4"/>
<line x1="536" y1="309.501" x2="-82" y2="309.501" stroke="#F4F4F4"/>
<line x1="536" y1="329.501" x2="-82" y2="329.501" stroke="#F4F4F4"/>
<line x1="536" y1="349.501" x2="-82" y2="349.501" stroke="#F4F4F4"/>
<line x1="536" y1="369.501" x2="-82" y2="369.501" stroke="#F4F4F4"/>
<line x1="536" y1="389.501" x2="-82" y2="389.501" stroke="#F4F4F4"/>
<line x1="536" y1="409.501" x2="-82" y2="409.501" stroke="#F4F4F4"/>
<line x1="536" y1="429.501" x2="-82" y2="429.501" stroke="#F4F4F4"/>
<line x1="536" y1="449.501" x2="-82" y2="449.501" stroke="#F4F4F4"/>
<line x1="536" y1="469.501" x2="-82" y2="469.501" stroke="#F4F4F4"/>
<line x1="536" y1="489.501" x2="-82" y2="489.501" stroke="#F4F4F4"/>
<line x1="536" y1="509.501" x2="-82" y2="509.501" stroke="#F4F4F4"/>
<line x1="536" y1="529.501" x2="-82" y2="529.501" stroke="#F4F4F4"/>
<line x1="536" y1="549.501" x2="-82" y2="549.501" stroke="#F4F4F4"/>
<line x1="536" y1="569.501" x2="-82" y2="569.501" stroke="#F4F4F4"/>
<line x1="536" y1="589.501" x2="-82" y2="589.501" stroke="#F4F4F4"/>
<line x1="536" y1="609.501" x2="-82" y2="609.501" stroke="#F4F4F4"/>
<line x1="536" y1="629.501" x2="-82" y2="629.502" stroke="#F4F4F4"/>
<line x1="536" y1="649.502" x2="-82" y2="649.502" stroke="#F4F4F4"/>
<line x1="536" y1="669.502" x2="-82" y2="669.502" stroke="#F4F4F4"/>
<line x1="536" y1="689.502" x2="-82" y2="689.502" stroke="#F4F4F4"/>
<line x1="536" y1="709.502" x2="-82" y2="709.502" stroke="#F4F4F4"/>
<line x1="536" y1="729.502" x2="-82" y2="729.502" stroke="#F4F4F4"/>
<line x1="536" y1="749.502" x2="-82" y2="749.502" stroke="#F4F4F4"/>
<line x1="536" y1="769.502" x2="-82" y2="769.502" stroke="#F4F4F4"/>
<line x1="536" y1="789.502" x2="-82" y2="789.502" stroke="#F4F4F4"/>
<rect width="359" height="42" fill="white"/>
<rect opacity="0.35" x="320.833" y="17.8333" width="21" height="10.3333" rx="2.16667" stroke="black"/>
<path opacity="0.4" d="M343.333 21V25C344.138 24.6612 344.661 23.8731 344.661 23C344.661 22.1269 344.138 21.3388 343.333 21Z" fill="black"/>
<rect x="322.333" y="19.3333" width="18" height="7.33333" rx="1.33333" fill="black"/>
<path fill-rule="evenodd" clip-rule="evenodd" d="M307.667 19.6152C309.892 19.6153 312.031 20.4694 313.644 22.001C313.765 22.1192 313.959 22.1177 314.079 21.9976L315.239 20.8273C315.3 20.7664 315.334 20.6839 315.333 20.598C315.333 20.5122 315.298 20.4301 315.237 20.3699C311.005 16.3176 304.329 16.3176 300.097 20.3699C300.035 20.43 300.001 20.5121 300 20.598C299.999 20.6838 300.033 20.7663 300.094 20.8273L301.255 21.9976C301.374 22.1179 301.568 22.1194 301.69 22.001C303.302 20.4693 305.442 19.6152 307.667 19.6152ZM307.667 23.4227C308.889 23.4227 310.068 23.8766 310.974 24.6964C311.097 24.8127 311.29 24.8102 311.409 24.6907L312.569 23.5204C312.63 23.459 312.663 23.3757 312.663 23.2892C312.662 23.2027 312.626 23.1201 312.564 23.0599C309.805 20.4955 305.532 20.4955 302.773 23.0599C302.71 23.1201 302.675 23.2027 302.674 23.2893C302.673 23.3758 302.707 23.4591 302.768 23.5204L303.927 24.6907C304.047 24.8102 304.24 24.8127 304.362 24.6964C305.268 23.8772 306.446 23.4233 307.667 23.4227ZM309.989 25.9846C309.991 26.0714 309.957 26.155 309.895 26.2158L307.89 28.2378C307.831 28.2972 307.751 28.3307 307.667 28.3307C307.583 28.3307 307.503 28.2972 307.445 28.2378L305.439 26.2158C305.377 26.155 305.343 26.0713 305.345 25.9845C305.347 25.8977 305.384 25.8156 305.449 25.7574C306.729 24.6751 308.605 24.6751 309.886 25.7574C309.95 25.8156 309.988 25.8978 309.989 25.9846Z" fill="black"/>
<path fill-rule="evenodd" clip-rule="evenodd" d="M294 17.6667H293C292.448 17.6667 292 18.1144 292 18.6667V27.3333C292 27.8856 292.448 28.3333 293 28.3333H294C294.552 28.3333 295 27.8856 295 27.3333V18.6667C295 18.1144 294.552 17.6667 294 17.6667ZM288.333 20H289.333C289.886 20 290.333 20.4477 290.333 21V27.3333C290.333 27.8856 289.886 28.3333 289.333 28.3333H288.333C287.781 28.3333 287.333 27.8856 287.333 27.3333V21C287.333 20.4477 287.781 20 288.333 20ZM284.667 22.3333H283.667C283.114 22.3333 282.667 22.781 282.667 23.3333V27.3333C282.667 27.8856 283.114 28.3333 283.667 28.3333H284.667C285.219 28.3333 285.667 27.8856 285.667 27.3333V23.3333C285.667 22.781 285.219 22.3333 284.667 22.3333ZM280 24.3333H279C278.448 24.3333 278 24.781 278 25.3333V27.3333C278 27.8856 278.448 28.3333 279 28.3333H280C280.552 28.3333 281 27.8856 281 27.3333V25.3333C281 24.781 280.552 24.3333 280 24.3333Z" fill="black"/>
<path d="M37.1341 28.2563C39.8221 28.2563 41.4188 26.1543 41.4188 22.5947C41.4188 21.2544 41.1624 20.1265 40.6717 19.2549C39.9612 17.8999 38.7381 17.1675 37.1927 17.1675C34.8929 17.1675 33.2669 18.7129 33.2669 20.8809C33.2669 22.917 34.7318 24.3965 36.7459 24.3965C37.9837 24.3965 38.9871 23.8179 39.4852 22.8145H39.5071C39.5071 22.8145 39.5364 22.8145 39.5438 22.8145C39.5584 22.8145 39.6097 22.8145 39.6097 22.8145C39.6097 25.2314 38.6942 26.6743 37.1487 26.6743C36.2405 26.6743 35.5374 26.1763 35.2957 25.3779H33.4134C33.7283 27.1138 35.2005 28.2563 37.1341 28.2563ZM37.2 22.895C35.9842 22.895 35.1199 22.0308 35.1199 20.8223C35.1199 19.6431 36.0281 18.7422 37.2073 18.7422C38.3865 18.7422 39.2947 19.6577 39.2947 20.8516C39.2947 22.0308 38.4085 22.895 37.2 22.895Z" fill="black"/>
<path d="M44.4366 26.8794C45.1324 26.8794 45.6085 26.3813 45.6085 25.7222C45.6085 25.0557 45.1324 24.5649 44.4366 24.5649C43.7482 24.5649 43.2648 25.0557 43.2648 25.7222C43.2648 26.3813 43.7482 26.8794 44.4366 26.8794ZM44.4366 21.3862C45.1324 21.3862 45.6085 20.8955 45.6085 20.2363C45.6085 19.5698 45.1324 19.0791 44.4366 19.0791C43.7482 19.0791 43.2648 19.5698 43.2648 20.2363C43.2648 20.8955 43.7482 21.3862 44.4366 21.3862Z" fill="black"/>
<path d="M52.6108 28H54.4198V26.0298H55.8481V24.4331H54.4198V17.4312H51.7538C49.8861 20.2437 48.3993 22.5947 47.4472 24.3452V26.0298H52.6108V28ZM49.1977 24.3672C50.4281 22.1992 51.5268 20.4634 52.5375 18.9692H52.64V24.4771H49.1977V24.3672Z" fill="black"/>
<path d="M59.8767 28H61.7663V17.4312H59.884L57.1228 19.3647V21.1812L59.7522 19.3354H59.8767V28Z" fill="black"/>
</g>
<defs>
<clipPath id="clip0_97_448">
<rect width="360" height="800" fill="white"/>
</clipPath>
</defs>
</svg>
