<svg width="14" height="14" viewBox="0 0 14 14" fill="none" xmlns="http://www.w3.org/2000/svg">
<path d="M14 1.93503V11.7152C13.9962 11.7241 13.9907 11.7326 13.9889 11.7418C13.9155 12.1159 13.6688 12.3186 13.286 12.3186C11.6608 12.3186 10.0357 12.3186 8.4105 12.3187C8.38437 12.3187 8.35812 12.3209 8.32662 12.3223V13.9801C8.29757 13.976 8.27447 13.9735 8.25172 13.9696C8.10658 13.9441 7.96145 13.9183 7.81632 13.8929C7.3388 13.8094 6.86128 13.7261 6.38365 13.6425C5.95 13.5667 5.51647 13.4906 5.08293 13.4147C4.60728 13.3315 4.13163 13.2485 3.6561 13.1652C3.11173 13.0699 2.56748 12.9742 2.02312 12.8788C1.47875 12.7835 0.934383 12.688 0.3899 12.5935C0.260167 12.5711 0.129967 12.5519 0 12.5312C0 8.83983 0 5.14838 0 1.45705C0.01155 1.4574 0.02345 1.45962 0.03465 1.45763C0.372867 1.39872 0.710967 1.33945 1.04907 1.28018C1.55143 1.1921 2.0538 1.10402 2.55617 1.01605C3.01082 0.936367 3.46547 0.8568 3.92012 0.777117C4.37477 0.69755 4.82942 0.617867 5.28407 0.5383C5.7617 0.45465 6.23922 0.371117 6.71685 0.287583C7.1505 0.21175 7.58427 0.136383 8.01768 0.0597333C8.11825 0.0421167 8.21812 0.0200667 8.31833 0C8.32218 0 8.32615 0 8.33 0V1.3363H8.4315C10.0367 1.3363 11.642 1.3363 13.2473 1.3363C13.2706 1.3363 13.2939 1.33583 13.3173 1.33653C13.6582 1.3468 13.9061 1.54175 13.9804 1.85745C13.9865 1.88347 13.9935 1.90913 14 1.93503ZM9.32727 7.99843V8.98707C9.30137 8.98707 9.27862 8.98707 9.25587 8.98707C8.96817 8.98707 8.68035 8.98823 8.39265 8.98602C8.34085 8.98555 8.32638 9.0013 8.3272 9.05228C8.33 9.23487 8.33012 9.41757 8.3272 9.60003C8.32638 9.65207 8.3426 9.66583 8.39335 9.66548C8.68105 9.66327 8.96887 9.66443 9.25657 9.66443C9.27932 9.66443 9.30195 9.66443 9.3268 9.66443V10.6528C9.3002 10.6528 9.27733 10.6528 9.25435 10.6528C8.96852 10.6528 8.68268 10.654 8.39697 10.6518C8.3454 10.6514 8.3265 10.663 8.32697 10.7189C8.32977 11.0122 8.32825 11.3056 8.32848 11.5989C8.32848 11.6175 8.3307 11.6362 8.33187 11.6554H13.3376V11.5938C13.3376 8.41563 13.3374 5.2374 13.3387 2.05928C13.3387 2.00515 13.3233 1.99127 13.2702 1.99127C11.6468 1.99255 10.0233 1.99255 8.39988 1.99127C8.34528 1.99127 8.3265 2.00433 8.32708 2.06173C8.32988 2.35118 8.32837 2.64063 8.32837 2.93008C8.32837 2.95085 8.32837 2.97162 8.32837 3.00148H9.32727V3.99467H8.3335V4.66772H9.32645V5.6588H8.3314C8.33012 5.68435 8.3286 5.70162 8.3286 5.71888C8.32837 5.90345 8.33023 6.08802 8.32732 6.27247C8.3265 6.32263 8.34388 6.3336 8.39078 6.33325C8.68047 6.33138 8.97015 6.33232 9.25983 6.33232C9.28223 6.33232 9.30475 6.33232 9.32598 6.33232V7.32235H9.2463C8.96443 7.32235 8.68245 7.32363 8.40058 7.3213C8.3468 7.32083 8.32568 7.33262 8.32697 7.39153C8.33082 7.57213 8.33 7.75285 8.32732 7.93345C8.3265 7.98373 8.33933 8.0003 8.39195 7.99983C8.67965 7.99727 8.96747 7.99867 9.25517 7.99867C9.27803 7.99867 9.3009 7.99867 9.32727 7.99867V7.99843ZM4.77038 7.20277C4.956 6.98168 5.14138 6.76013 5.32782 6.53952C5.34637 6.51747 5.37028 6.49962 5.39315 6.48153C5.712 6.22918 5.91407 5.90135 5.9969 5.50667C6.04648 5.27018 6.06795 5.02775 6.10295 4.78812C6.1698 4.3309 6.30618 3.89632 6.54022 3.49615C6.59948 3.39477 6.64078 3.29175 6.64895 3.17508C6.65105 3.14417 6.65385 3.11313 6.65817 3.08245C6.66237 3.052 6.6752 3.02073 6.63098 3.00708C6.5933 2.99542 6.56402 2.97488 6.52633 3.02178C6.36323 3.22467 6.20223 3.43023 6.02548 3.62087C5.72425 3.94555 5.41065 4.2588 5.10417 4.5787C4.6543 5.04828 4.23442 5.54167 3.90017 6.10283C3.86692 6.15872 3.82188 6.20993 3.77405 6.25427C3.65003 6.36907 3.50385 6.39182 3.34647 6.33558C3.32407 6.32753 3.3005 6.3007 3.29292 6.27737C3.26935 6.20573 3.24975 6.13247 3.2347 6.0585C3.16785 5.7288 3.05387 5.418 2.88108 5.12808C2.78087 4.95985 2.69103 4.78532 2.59735 4.61312C2.35048 4.15928 2.12112 3.69775 1.97342 3.20005C1.9642 3.16913 1.94798 3.13833 1.92803 3.1129C1.83365 2.99262 1.72352 2.8896 1.58713 2.81738C1.42765 2.73303 1.22955 2.7524 1.09597 2.89473C0.97895 3.01933 0.8904 3.16202 0.8631 3.33013C0.81655 3.61702 0.7819 3.90588 0.7448 4.19417C0.713417 4.43835 0.691367 4.68393 0.654733 4.92742C0.596517 5.31382 0.599317 5.6966 0.692767 6.07728C0.801967 6.5219 1.01208 6.91565 1.28975 7.2772C1.4126 7.43715 1.53335 7.60002 1.6394 7.77117C1.8389 8.09328 1.9096 8.44503 1.8424 8.82082C1.81393 8.97995 1.79387 9.13885 1.82315 9.30067C1.87845 9.6061 2.04703 9.8378 2.2911 10.0193C2.5312 10.1978 2.77445 10.3719 3.0149 10.5499C3.29583 10.7578 3.6029 10.9127 3.94112 11.0011C4.16057 11.0585 4.3834 11.1026 4.60308 11.1587C4.79127 11.2067 4.97023 11.2253 5.16577 11.1625C5.48158 11.0613 5.81502 11.053 6.14518 11.0399C6.18508 11.0383 6.22487 11.0332 6.26908 11.0293C6.25018 10.9082 6.23467 10.7952 6.21472 10.6828C6.16502 10.4023 6.14868 10.1207 6.17015 9.8364C6.18368 9.6565 6.19897 9.47602 6.1971 9.296C6.19255 8.85197 6.02 8.47735 5.68027 8.19327C5.3354 7.90487 5.06917 7.54833 4.77038 7.20265V7.20277Z" fill="white"/>
</svg>
