<svg width="127" height="127" viewBox="0 0 127 127" fill="none" xmlns="http://www.w3.org/2000/svg">
<path d="M127 63.5C127 98.5701 98.5701 127 63.5 127C28.4299 127 0 98.5701 0 63.5C0 28.4299 28.4299 0 63.5 0C98.5701 0 127 28.4299 127 63.5ZM18.7336 63.5C18.7336 88.2238 38.7762 108.266 63.5 108.266C88.2238 108.266 108.266 88.2238 108.266 63.5C108.266 38.7762 88.2238 18.7336 63.5 18.7336C38.7762 18.7336 18.7336 38.7762 18.7336 63.5Z" fill="#DADADA" fill-opacity="0.4"/>
<path d="M9.36625 63.5C4.19341 63.5 -0.0709152 67.7159 0.689285 72.8326C2.67847 86.2213 8.9123 98.7149 18.5987 108.401C28.2851 118.088 40.7787 124.322 54.1674 126.311C59.284 127.071 63.5 122.807 63.5 117.634C63.5 112.461 59.2615 108.366 54.2015 107.291C45.7968 105.507 38.0133 101.324 31.8446 95.1554C25.6759 88.9867 21.4934 81.2032 19.7086 72.7985C18.6341 67.7385 14.5391 63.5 9.36625 63.5Z" fill="#45A570"/>
</svg>
