<svg width="127" height="127" viewBox="0 0 127 127" fill="none" xmlns="http://www.w3.org/2000/svg">
<path d="M127 63.5C127 98.5701 98.5701 127 63.5 127C28.4299 127 0 98.5701 0 63.5C0 28.4299 28.4299 0 63.5 0C98.5701 0 127 28.4299 127 63.5ZM18.7336 63.5C18.7336 88.2238 38.7762 108.266 63.5 108.266C88.2238 108.266 108.266 88.2238 108.266 63.5C108.266 38.7762 88.2238 18.7336 63.5 18.7336C38.7762 18.7336 18.7336 38.7762 18.7336 63.5Z" fill="#DADADA" fill-opacity="0.4"/>
<path d="M63.5 117.634C63.5 122.807 67.7159 127.071 72.8326 126.311C86.2213 124.322 98.7149 118.088 108.401 108.401C118.088 98.7149 124.322 86.2213 126.311 72.8326C127.071 67.716 122.807 63.5 117.634 63.5C112.461 63.5 108.366 67.7385 107.291 72.7985C105.507 81.2032 101.324 88.9867 95.1554 95.1554C88.9867 101.324 81.2032 105.507 72.7985 107.291C67.7385 108.366 63.5 112.461 63.5 117.634Z" fill="#45A570"/>
</svg>
