<svg width="127" height="127" viewBox="0 0 127 127" fill="none" xmlns="http://www.w3.org/2000/svg">
<path d="M127 63.5C127 98.5701 98.5701 127 63.5 127C28.4299 127 0 98.5701 0 63.5C0 28.4299 28.4299 0 63.5 0C98.5701 0 127 28.4299 127 63.5ZM18.7336 63.5C18.7336 88.2238 38.7762 108.266 63.5 108.266C88.2238 108.266 108.266 88.2238 108.266 63.5C108.266 38.7762 88.2238 18.7336 63.5 18.7336C38.7762 18.7336 18.7336 38.7762 18.7336 63.5Z" fill="#DADADA" fill-opacity="0.4"/>
<path d="M63.5 9.36625C63.5 4.19341 59.2841 -0.0709152 54.1674 0.689285C40.7787 2.67847 28.2851 8.9123 18.5987 18.5987C8.9123 28.2851 2.67848 40.7787 0.689287 54.1674C-0.0709129 59.284 4.19341 63.5 9.36625 63.5C14.5391 63.5 18.6341 59.2615 19.7086 54.2015C21.4934 45.7968 25.6759 38.0133 31.8446 31.8446C38.0133 25.6759 45.7968 21.4934 54.2015 19.7086C59.2615 18.6341 63.5 14.5391 63.5 9.36625Z" fill="#45A570"/>
</svg>
