<svg width="141" height="23" viewBox="0 0 141 23" fill="none" xmlns="http://www.w3.org/2000/svg">
<path d="M0.241211 0.525391H6.4375L14.5234 12.4053V0.525391H20.7783V22H14.5234L6.48145 10.208V22H0.241211V0.525391ZM38.5621 0.525391H45.1832V13.3281C45.1832 14.5977 44.983 15.7988 44.5826 16.9316C44.192 18.0547 43.5719 19.041 42.7223 19.8906C41.8824 20.7305 40.9986 21.3213 40.0709 21.6631C38.7818 22.1416 37.234 22.3809 35.4273 22.3809C34.3824 22.3809 33.2398 22.3076 31.9996 22.1611C30.7691 22.0146 29.7389 21.7266 28.9088 21.2969C28.0787 20.8574 27.317 20.2373 26.6236 19.4365C25.94 18.6357 25.4713 17.8105 25.2174 16.9609C24.8072 15.5938 24.6021 14.3828 24.6021 13.3281V0.525391H31.2232V13.6357C31.2232 14.8076 31.5455 15.7256 32.19 16.3896C32.8443 17.0439 33.7477 17.3711 34.9 17.3711C36.0426 17.3711 36.9361 17.0488 37.5807 16.4043C38.235 15.75 38.5621 14.8271 38.5621 13.6357V0.525391ZM59.7736 14.2217V9.75391H70.0275V18.9092C68.0646 20.2471 66.3264 21.1602 64.8127 21.6484C63.3088 22.127 61.5217 22.3662 59.4514 22.3662C56.9025 22.3662 54.8225 21.9316 53.2111 21.0625C51.6096 20.1934 50.3645 18.8994 49.4758 17.1807C48.5969 15.4619 48.1574 13.4893 48.1574 11.2627C48.1574 8.91895 48.6408 6.88281 49.6076 5.1543C50.5744 3.41602 51.9904 2.09766 53.8557 1.19922C55.3107 0.505859 57.2687 0.15918 59.7297 0.15918C62.1027 0.15918 63.8752 0.374023 65.0471 0.803711C66.2287 1.2334 67.2053 1.90234 67.9768 2.81055C68.758 3.70898 69.3439 4.85156 69.7346 6.23828L63.3332 7.38086C63.0695 6.57031 62.6203 5.9502 61.9855 5.52051C61.3605 5.09082 60.5598 4.87598 59.5832 4.87598C58.1281 4.87598 56.966 5.38379 56.0969 6.39941C55.2375 7.40527 54.8078 9.00195 54.8078 11.1895C54.8078 13.5137 55.2424 15.1738 56.1115 16.1699C56.9904 17.166 58.2111 17.6641 59.7736 17.6641C60.5158 17.6641 61.2238 17.5566 61.8977 17.3418C62.5715 17.127 63.343 16.7607 64.2121 16.2432V14.2217H59.7736ZM73.3826 0.525391H85.8045C87.8748 0.525391 89.4617 1.03809 90.5652 2.06348C91.6785 3.08887 92.2352 4.3584 92.2352 5.87207C92.2352 7.1416 91.8396 8.23047 91.0486 9.13867C90.5213 9.74414 89.7498 10.2227 88.7342 10.5742C90.2771 10.9453 91.41 11.585 92.1326 12.4932C92.865 13.3916 93.2312 14.5244 93.2312 15.8916C93.2312 17.0049 92.9725 18.0059 92.4549 18.8945C91.9373 19.7832 91.2293 20.4863 90.3309 21.0039C89.7742 21.3262 88.9344 21.5605 87.8113 21.707C86.3172 21.9023 85.326 22 84.8377 22H73.3826V0.525391ZM80.077 8.94824H82.9627C83.9978 8.94824 84.7156 8.77246 85.116 8.4209C85.5262 8.05957 85.7312 7.54199 85.7312 6.86816C85.7312 6.24316 85.5262 5.75488 85.116 5.40332C84.7156 5.05176 84.0125 4.87598 83.0066 4.87598H80.077V8.94824ZM80.077 17.3857H83.4607C84.6033 17.3857 85.409 17.1855 85.8777 16.7852C86.3465 16.375 86.5809 15.8281 86.5809 15.1445C86.5809 14.5098 86.3465 14.002 85.8777 13.6211C85.4187 13.2305 84.6082 13.0352 83.4461 13.0352H80.077V17.3857ZM109.301 0.525391H115.922V13.3281C115.922 14.5977 115.722 15.7988 115.322 16.9316C114.931 18.0547 114.311 19.041 113.461 19.8906C112.621 20.7305 111.738 21.3213 110.81 21.6631C109.521 22.1416 107.973 22.3809 106.166 22.3809C105.121 22.3809 103.979 22.3076 102.739 22.1611C101.508 22.0146 100.478 21.7266 99.6479 21.2969C98.8178 20.8574 98.0561 20.2373 97.3627 19.4365C96.6791 18.6357 96.2104 17.8105 95.9564 16.9609C95.5463 15.5938 95.3412 14.3828 95.3412 13.3281V0.525391H101.962V13.6357C101.962 14.8076 102.285 15.7256 102.929 16.3896C103.583 17.0439 104.487 17.3711 105.639 17.3711C106.782 17.3711 107.675 17.0488 108.32 16.4043C108.974 15.75 109.301 14.8271 109.301 13.6357V0.525391ZM130.513 14.2217V9.75391H140.767V18.9092C138.804 20.2471 137.065 21.1602 135.552 21.6484C134.048 22.127 132.261 22.3662 130.19 22.3662C127.642 22.3662 125.562 21.9316 123.95 21.0625C122.349 20.1934 121.104 18.8994 120.215 17.1807C119.336 15.4619 118.896 13.4893 118.896 11.2627C118.896 8.91895 119.38 6.88281 120.347 5.1543C121.313 3.41602 122.729 2.09766 124.595 1.19922C126.05 0.505859 128.008 0.15918 130.469 0.15918C132.842 0.15918 134.614 0.374023 135.786 0.803711C136.968 1.2334 137.944 1.90234 138.716 2.81055C139.497 3.70898 140.083 4.85156 140.474 6.23828L134.072 7.38086C133.809 6.57031 133.359 5.9502 132.725 5.52051C132.1 5.09082 131.299 4.87598 130.322 4.87598C128.867 4.87598 127.705 5.38379 126.836 6.39941C125.977 7.40527 125.547 9.00195 125.547 11.1895C125.547 13.5137 125.981 15.1738 126.851 16.1699C127.729 17.166 128.95 17.6641 130.513 17.6641C131.255 17.6641 131.963 17.5566 132.637 17.3418C133.311 17.127 134.082 16.7607 134.951 16.2432V14.2217H130.513Z" fill="#545454"/>
</svg>
