<svg width="13" height="9" viewBox="0 0 13 9" fill="none" xmlns="http://www.w3.org/2000/svg">
<path d="M10.9344 8.40001C11.0867 8.40001 11.1309 8.23022 11.1309 8.23022L11.9982 2.85394C12.0523 2.56019 11.7829 2.71503 11.7829 2.71503L8.42365 4.86694C8.15472 5.03921 8.03017 4.74445 8.03017 4.74445L6.1248 1.06401C6.1248 1.06401 6.05038 0.904683 5.97793 1.05903L4.07058 4.74445C4.07058 4.74445 3.94604 5.03921 3.6771 4.86694L0.316903 2.71503C0.316903 2.71503 0.0469752 2.56019 0.101556 2.85394L0.9684 8.23022C0.9684 8.23022 1.01306 8.40001 1.16539 8.40001H10.9349H10.9344Z" fill="#DBDBDB"/>
</svg>
