<svg width="14" height="10" viewBox="0 0 14 10" fill="none" xmlns="http://www.w3.org/2000/svg">
<path d="M1.87182 10C1.53506 10 1.25002 9.88333 1.01669 9.65C0.783354 9.41667 0.666687 9.13162 0.666687 8.79486V1.20516C0.666687 0.868408 0.783354 0.583364 1.01669 0.350031C1.25002 0.116697 1.53506 3.05176e-05 1.87182 3.05176e-05H12.1282C12.4649 3.05176e-05 12.75 0.116697 12.9833 0.350031C13.2167 0.583364 13.3333 0.868408 13.3333 1.20516V8.79486C13.3333 9.13162 13.2167 9.41667 12.9833 9.65C12.75 9.88333 12.4649 10 12.1282 10H1.87182ZM1.87182 9.00002H12.1282C12.1795 9.00002 12.2265 8.97865 12.2692 8.93591C12.312 8.89317 12.3333 8.84615 12.3333 8.79486V1.20516C12.3333 1.15387 12.312 1.10686 12.2692 1.06411C12.2265 1.02138 12.1795 1.00001 12.1282 1.00001H1.87182C1.82053 1.00001 1.77351 1.02138 1.73077 1.06411C1.68804 1.10686 1.66667 1.15387 1.66667 1.20516V8.79486C1.66667 8.84615 1.68804 8.89317 1.73077 8.93591C1.77351 8.97865 1.82053 9.00002 1.87182 9.00002ZM3.50004 7.66668H10.5513L8.35897 4.74363L6.48719 7.17951L5.15385 5.47441L3.50004 7.66668Z" fill="#50895D"/>
</svg>
