<svg width="46" height="65" viewBox="0 0 46 65" fill="none" xmlns="http://www.w3.org/2000/svg">
<g clip-path="url(#clip0_121_464)">
<path d="M9.10515 48.9041C9.08129 48.126 9.25805 47.2486 9.39636 46.3667C9.74148 44.1675 9.46706 42.0507 8.56516 40.0179C7.92398 38.5727 7.01103 37.2993 6.09057 36.0335C5.05212 34.6057 3.96728 33.2137 3.08571 31.6736C1.66901 29.1989 0.684471 26.5684 0.247883 23.7379C0.034891 22.3584 -0.0517197 20.9651 0.0309139 19.5735C0.101175 18.3945 0.265116 17.2209 0.396358 16.0464C0.514785 14.9819 0.643375 13.9183 0.770198 12.8543C0.889951 11.8498 1.00926 10.8449 1.13653 9.84128C1.28854 8.64572 1.44364 7.45061 1.60802 6.25684C1.70745 5.53467 1.80688 4.81116 1.94165 4.09526C2.13962 3.04333 2.66414 2.15292 3.3398 1.34395C3.66017 0.960495 3.99821 0.599411 4.44718 0.36719C5.45778 -0.155867 6.4622 -0.107096 7.4485 0.427146C8.47236 0.981524 9.31682 1.76141 9.9854 2.70954C10.2497 3.08449 10.3544 3.57667 10.5227 4.01919C11.0742 5.47113 11.5643 6.95082 12.182 8.37323C13.703 11.8758 15.5528 15.2092 17.4202 18.531C18.6208 20.6666 19.4273 22.9504 19.9134 25.3554C20.0208 25.8869 20.1843 26.4068 20.3195 26.9326C20.4149 27.3035 20.6602 27.4955 21.0177 27.5984C22.4874 28.0212 23.6367 27.499 24.5462 26.3487C24.9257 25.8686 25.2337 25.329 25.5581 24.8059C26.8904 22.6559 28.3641 20.6089 29.9973 18.6858C31.3159 17.1332 32.6836 15.6226 34.0526 14.1148C34.8988 13.1828 35.7914 12.2932 36.6571 11.3791C38.2408 9.70704 39.8568 8.0636 41.3902 6.34498C42.6173 4.97 43.7446 3.50374 44.9116 2.07372C45.2077 1.71085 45.4167 1.6491 45.8237 1.87909C45.909 1.92696 46.0088 2.06567 45.9991 2.15024C45.905 2.96771 45.9227 3.81113 45.5722 4.57804C45.3288 5.11139 45.0552 5.63132 44.7759 6.14677C43.779 7.9844 43.0283 9.92092 42.4852 11.942C42.0305 13.6342 41.7592 15.36 41.544 17.0979C41.3455 18.7001 41.171 20.3078 40.7596 21.8738C40.2439 23.8385 39.3345 25.5943 37.9562 27.0784C37.4242 27.6516 36.8033 28.1393 36.2523 28.6955C35.7901 29.1622 35.3575 29.6602 34.9346 30.1644C33.8718 31.4302 32.8241 32.709 31.7645 33.9775C31.6438 34.122 31.6244 34.2182 31.7552 34.3735C32.7826 35.5914 33.7941 36.8232 34.8237 38.0389C36.0327 39.4658 37.3367 40.7956 38.7472 42.0234C40.6805 43.7066 41.9001 45.8244 42.2877 48.3882C42.4171 49.245 42.4697 50.1225 42.46 50.9896C42.4476 52.089 42.3376 53.1879 42.2673 54.2864C42.1882 55.5275 42.1697 56.767 42.2413 58.0113C42.3464 59.8377 42.7353 61.6217 42.9788 63.4271C43.0035 63.611 42.9593 63.6745 42.7941 63.6888C42.5744 63.7072 42.3553 63.7349 42.1352 63.747C40.9536 63.811 39.7698 63.8454 38.5904 63.9394C37.2545 64.0463 35.9341 64.2643 34.654 64.6875C33.3628 65.1144 32.0601 65.0701 30.7565 64.7614C29.0022 64.3457 27.2479 63.9309 25.4989 63.4942C22.9664 62.862 20.6602 61.73 18.5528 60.1836C16.6284 58.771 14.715 57.3433 12.8002 55.9177C11.5983 55.0224 10.5961 53.9476 9.92663 52.5807C9.37824 51.4612 9.08483 50.2813 9.10383 48.905L9.10515 48.9041Z" fill="#D2D2D2"/>
</g>
<defs>
<clipPath id="clip0_121_464">
<rect width="46" height="65" fill="white"/>
</clipPath>
</defs>
</svg>
