<svg width="56" height="19" viewBox="0 0 56 19" fill="none" xmlns="http://www.w3.org/2000/svg">
<path d="M6.22266 18V2.84766H0.5625V0.820312H14.1797V2.84766H8.49609V18H6.22266ZM21.6216 13.9922L23.8013 14.2617C23.4575 15.5352 22.8208 16.5234 21.8911 17.2266C20.9614 17.9297 19.7739 18.2812 18.3286 18.2812C16.5083 18.2812 15.063 17.7227 13.9927 16.6055C12.9302 15.4805 12.3989 13.9062 12.3989 11.8828C12.3989 9.78906 12.938 8.16406 14.0161 7.00781C15.0942 5.85156 16.4927 5.27344 18.2114 5.27344C19.8755 5.27344 21.2348 5.83984 22.2895 6.97266C23.3442 8.10547 23.8716 9.69922 23.8716 11.7539C23.8716 11.8789 23.8677 12.0664 23.8598 12.3164H14.5786C14.6567 13.6836 15.0434 14.7305 15.7388 15.457C16.4341 16.1836 17.3013 16.5469 18.3403 16.5469C19.1138 16.5469 19.7739 16.3438 20.3208 15.9375C20.8677 15.5312 21.3013 14.8828 21.6216 13.9922ZM14.6958 10.582H21.645C21.5513 9.53516 21.2856 8.75 20.8481 8.22656C20.1763 7.41406 19.3052 7.00781 18.2348 7.00781C17.2661 7.00781 16.4497 7.33203 15.7856 7.98047C15.1294 8.62891 14.7661 9.49609 14.6958 10.582ZM34.1025 16.4648C33.3213 17.1289 32.5673 17.5977 31.8408 17.8711C31.122 18.1445 30.3486 18.2812 29.5205 18.2812C28.1533 18.2812 27.1025 17.9492 26.3681 17.2852C25.6338 16.6133 25.2666 15.7578 25.2666 14.7188C25.2666 14.1094 25.4033 13.5547 25.6767 13.0547C25.958 12.5469 26.3213 12.1406 26.7666 11.8359C27.2197 11.5312 27.7275 11.3008 28.29 11.1445C28.7041 11.0352 29.3291 10.9297 30.165 10.8281C31.8681 10.625 33.122 10.3828 33.9267 10.1016C33.9345 9.8125 33.9384 9.62891 33.9384 9.55078C33.9384 8.69141 33.7392 8.08594 33.3408 7.73438C32.8017 7.25781 32.0009 7.01953 30.9384 7.01953C29.9463 7.01953 29.2119 7.19531 28.7353 7.54688C28.2666 7.89062 27.9189 8.50391 27.6923 9.38672L25.6298 9.10547C25.8173 8.22266 26.1259 7.51172 26.5556 6.97266C26.9853 6.42578 27.6064 6.00781 28.4189 5.71875C29.2314 5.42188 30.1728 5.27344 31.2431 5.27344C32.3056 5.27344 33.1689 5.39844 33.833 5.64844C34.497 5.89844 34.9853 6.21484 35.2978 6.59766C35.6103 6.97266 35.8291 7.44922 35.9541 8.02734C36.0244 8.38672 36.0595 9.03516 36.0595 9.97266V12.7852C36.0595 14.7461 36.1025 15.9883 36.1884 16.5117C36.2822 17.0273 36.4619 17.5234 36.7275 18H34.5244C34.3056 17.5625 34.165 17.0508 34.1025 16.4648ZM33.9267 11.7539C33.1611 12.0664 32.0127 12.332 30.4814 12.5508C29.6142 12.6758 29.0009 12.8164 28.6416 12.9727C28.2822 13.1289 28.0048 13.3594 27.8095 13.6641C27.6142 13.9609 27.5166 14.293 27.5166 14.6602C27.5166 15.2227 27.7275 15.6914 28.1494 16.0664C28.5791 16.4414 29.2041 16.6289 30.0244 16.6289C30.8369 16.6289 31.5595 16.4531 32.1923 16.1016C32.8252 15.7422 33.29 15.2539 33.5869 14.6367C33.8134 14.1602 33.9267 13.457 33.9267 12.5273V11.7539ZM38.8608 18V5.55469H40.7475V7.30078C41.1381 6.69141 41.6577 6.20312 42.3061 5.83594C42.9545 5.46094 43.6928 5.27344 44.5209 5.27344C45.4428 5.27344 46.1967 5.46484 46.7827 5.84766C47.3764 6.23047 47.7944 6.76562 48.0366 7.45312C49.0209 6 50.3022 5.27344 51.8803 5.27344C53.1147 5.27344 54.0639 5.61719 54.728 6.30469C55.392 6.98438 55.7241 8.03516 55.7241 9.45703V18H53.6264V10.1602C53.6264 9.31641 53.5561 8.71094 53.4155 8.34375C53.2827 7.96875 53.0366 7.66797 52.6772 7.44141C52.3178 7.21484 51.8959 7.10156 51.4116 7.10156C50.5366 7.10156 49.81 7.39453 49.2319 7.98047C48.6538 8.55859 48.3647 9.48828 48.3647 10.7695V18H46.2553V9.91406C46.2553 8.97656 46.0834 8.27344 45.7397 7.80469C45.3959 7.33594 44.8334 7.10156 44.0522 7.10156C43.4584 7.10156 42.9077 7.25781 42.3998 7.57031C41.8998 7.88281 41.5366 8.33984 41.31 8.94141C41.0834 9.54297 40.9702 10.4102 40.9702 11.543V18H38.8608Z" fill="#545454"/>
</svg>
